<svg width="18" height="18" viewBox="0 0 18 18" fill="none" xmlns="http://www.w3.org/2000/svg">
<g clip-path="url(#clip0_911_53)">
<path d="M13.9295 1.5945L9.23527 0.03825C9.08302 -0.01275 8.91577 -0.01275 8.76352 0.03825L4.06927 1.5945C2.53177 2.1045 1.49902 3.53475 1.49902 5.154V9.03225C1.49902 13.9545 6.75277 16.965 8.36302 17.7698C8.36302 17.7698 8.71327 18 9.00052 18C9.28777 18 9.59377 17.82 9.59377 17.82C11.2138 17.1683 16.499 14.6093 16.499 9.03225V5.154C16.499 3.53475 15.467 2.1045 13.9295 1.5945ZM9.74977 8.84325V11.25C9.74977 11.6648 9.41452 12 8.99977 12C8.58502 12 8.24977 11.6648 8.24977 11.25V8.84325C7.58752 8.55375 7.12477 7.89375 7.12477 7.125C7.12477 6.08925 7.96402 5.25 8.99977 5.25C10.0355 5.25 10.8748 6.08925 10.8748 7.125C10.8748 7.89375 10.412 8.5545 9.74977 8.84325Z" fill="#545454"/>
</g>
<defs>
<clipPath id="clip0_911_53">
<rect width="18" height="18" fill="white"/>
</clipPath>
</defs>
</svg>
