<svg width="14" height="14" viewBox="0 0 14 14" fill="none" xmlns="http://www.w3.org/2000/svg">
<path d="M7.17168 0H6.82832C6.74344 0 6.65859 0.00352925 6.574 0.0105786C4.88847 0.151039 3.63594 1.6313 3.7764 3.31683L3.92009 5.04107C4.05358 6.6429 5.39262 7.875 7 7.875C8.60738 7.875 9.94643 6.6429 10.0799 5.04107L10.2236 3.31683C10.2306 3.23223 10.2342 3.14739 10.2342 3.0625C10.2342 1.37113 8.86305 0 7.17168 0Z" fill="#202020"/>
<path d="M10.4126 8.27974C9.51758 9.11537 8.31643 9.625 7 9.625C5.68357 9.625 4.48242 9.11537 3.58737 8.27974L2.04822 8.85692C0.816202 9.31892 0 10.4967 0 11.8125V13.125C0 13.6082 0.391751 14 0.875 14H13.125C13.6082 14 14 13.6082 14 13.125V11.8125C14 10.4967 13.1838 9.31892 11.9518 8.85692L10.4126 8.27974Z" fill="#202020"/>
</svg>
