<svg width="18" height="18" viewBox="0 0 18 18" fill="none" xmlns="http://www.w3.org/2000/svg">
<path d="M7.125 15.75H3.375C1.9275 15.75 0.75 14.5725 0.75 13.125V3.375C0.75 1.9275 1.9275 0.75 3.375 0.75H8.25V3.375C8.25 4.41 9.09 5.25 10.125 5.25H12.75V6.375C12.75 6.585 12.915 6.75 13.125 6.75C13.335 6.75 13.5 6.585 13.5 6.375C13.5 6.375 13.5075 4.8 13.5 4.77C13.4325 4.1775 13.155 3.6225 12.7275 3.2025L10.2975 0.7725C9.81 0.285 9.135 0 8.445 0H3.375C1.515 0 0 1.515 0 3.375V13.125C0 14.985 1.515 16.5 3.375 16.5H7.125C7.335 16.5 7.5 16.335 7.5 16.125C7.5 15.915 7.335 15.75 7.125 15.75ZM12.2025 3.7275C12.42 3.945 12.5775 4.2075 12.6675 4.5H10.125C9.5025 4.5 9 3.9975 9 3.375V0.8325C9.285 0.9225 9.555 1.08 9.7725 1.2975L12.2025 3.7275ZM13.125 8.25C10.44 8.25 8.25 10.44 8.25 13.125C8.25 15.81 10.44 18 13.125 18C15.81 18 18 15.81 18 13.125C18 10.44 15.81 8.25 13.125 8.25ZM13.125 17.25C10.8525 17.25 9 15.3975 9 13.125C9 10.8525 10.8525 9 13.125 9C15.3975 9 17.25 10.8525 17.25 13.125C17.25 15.3975 15.3975 17.25 13.125 17.25ZM13.875 11.25C13.875 11.6625 13.5375 12 13.125 12C12.7125 12 12.375 11.6625 12.375 11.25C12.375 10.8375 12.7125 10.5 13.125 10.5C13.5375 10.5 13.875 10.8375 13.875 11.25ZM13.5 13.125V15.375C13.5 15.585 13.335 15.75 13.125 15.75C12.915 15.75 12.75 15.585 12.75 15.375V13.125C12.75 12.915 12.915 12.75 13.125 12.75C13.335 12.75 13.5 12.915 13.5 13.125Z" fill="#2061F8"/>
</svg>
