<svg width="14" height="14" viewBox="0 0 14 14" fill="none" xmlns="http://www.w3.org/2000/svg">
<g clip-path="url(#clip0_596_150)">
<path d="M12.8333 9.33398V12.2507C12.8333 12.4054 12.7719 12.5537 12.6625 12.6631C12.5531 12.7725 12.4047 12.834 12.25 12.834H1.75C1.59529 12.834 1.44692 12.7725 1.33752 12.6631C1.22812 12.5537 1.16667 12.4054 1.16667 12.2507V9.33398H0V12.2507C0 12.7148 0.184374 13.1599 0.512563 13.4881C0.840752 13.8163 1.28587 14.0007 1.75 14.0007H12.25C12.7141 14.0007 13.1592 13.8163 13.4874 13.4881C13.8156 13.1599 14 12.7148 14 12.2507V9.33398H12.8333Z" fill="#2061F8"/>
<path d="M6.98095 6.63436e-06C6.75123 -0.000626634 6.52364 0.0440815 6.31122 0.131569C6.09881 0.219056 5.90575 0.347602 5.74311 0.50984L3.45703 2.79592L4.28186 3.62076L6.4017 1.50151L6.41686 11.0833H7.58353L7.56836 1.50967L9.67945 3.62076L10.5043 2.79592L8.2182 0.50984C8.05567 0.34762 7.86271 0.21908 7.65039 0.131591C7.43808 0.0441028 7.21058 -0.000613577 6.98095 6.63436e-06Z" fill="#2061F8"/>
</g>
<defs>
<clipPath id="clip0_596_150">
<rect width="14" height="14" fill="white"/>
</clipPath>
</defs>
</svg>
