<svg width="48" height="48" viewBox="0 0 48 48" fill="none" xmlns="http://www.w3.org/2000/svg">
<g clip-path="url(#clip0_842_3148)">
<path d="M47.274 21.1L38.77 5.17595C37.726 3.21795 35.698 2.00195 33.478 2.00195H14.564C12.35 2.00195 10.324 3.21395 9.27605 5.16595L0.730047 21.098C-0.245953 22.92 -0.245953 25.096 0.730047 26.92L9.27205 42.836C10.318 44.788 12.344 46 14.56 46H33.474C35.694 46 37.722 44.784 38.766 42.826L47.27 26.902C48.24 25.086 48.24 22.916 47.27 21.1H47.274ZM23.818 30.84C23.046 31.614 22.026 32 21.004 32C19.982 32 18.954 31.61 18.172 30.83L12.608 25.438L15.392 22.564L20.978 27.978L32.596 16.576L35.404 19.426L23.818 30.84Z" fill="#2061F8"/>
</g>
<defs>
<clipPath id="clip0_842_3148">
<rect width="48" height="48" fill="white"/>
</clipPath>
</defs>
</svg>
