<svg width="18" height="18" viewBox="0 0 18 18" fill="none" xmlns="http://www.w3.org/2000/svg">
    <g clip-path="url(#clip0_931_82)">
        <path
            d="M2.72848 6.74993C2.26498 6.74993 1.90498 6.33143 1.98673 5.87543C2.25598 4.37468 3.00373 2.97968 4.12798 1.92593C5.57923 0.564683 7.47448 -0.114067 9.47248 0.0156827C13.2382 0.258683 16.1797 3.53693 16.1242 7.45343C16.0942 9.56693 14.3325 11.2507 12.2182 11.2507H10.0192C9.74923 11.5102 9.38473 11.6714 8.98123 11.6714C8.15248 11.6714 7.48123 11.0002 7.48123 10.1714C7.48123 9.34268 8.15248 8.67143 8.98123 8.67143C9.66223 8.67143 10.2307 9.12818 10.4137 9.75068H12.2182C13.5202 9.75068 14.61 8.71343 14.6242 7.41218C14.6587 4.30268 12.3405 1.70543 9.37573 1.51343C7.80148 1.41593 6.29998 1.94693 5.15323 3.02168C4.24648 3.87143 3.66223 4.95968 3.45748 6.15518C3.39748 6.50468 3.08248 6.75143 2.72848 6.75143V6.74993ZM8.99998 12.7499C6.22873 12.7499 3.83098 14.4689 3.03373 17.0264C2.96248 17.2544 3.00373 17.5027 3.14548 17.6947C3.28723 17.8867 3.51148 17.9999 3.74998 17.9999H14.25C14.4885 17.9999 14.7127 17.8867 14.8545 17.6947C14.9962 17.5027 15.0375 17.2544 14.9662 17.0264C14.169 14.4689 11.7712 12.7499 8.99998 12.7499ZM11.2005 8.24993H12.966C13.0672 7.89218 13.125 7.51568 13.125 7.12493C13.125 4.84643 11.2785 2.99993 8.99998 2.99993C6.72148 2.99993 4.87498 4.84643 4.87498 7.12493C4.87498 8.24318 5.32198 9.25568 6.04423 9.99893C6.13498 8.44943 7.40848 7.21718 8.98123 7.21718C9.87448 7.21718 10.662 7.62293 11.2012 8.24993H11.2005Z"
            fill="#545454" />
    </g>
    <defs>
        <clipPath id="clip0_931_82">
            <rect width="18" height="18" fill="white" />
        </clipPath>
    </defs>
</svg>
