<svg width="18" height="18" viewBox="0 0 18 18" fill="none" xmlns="http://www.w3.org/2000/svg">
<g clip-path="url(#clip0_903_4547)">
<path d="M9 0C7.21997 0 5.47991 0.527841 3.99987 1.51677C2.51983 2.50571 1.36628 3.91131 0.685088 5.55585C0.00389957 7.20039 -0.17433 9.00998 0.172937 10.7558C0.520204 12.5016 1.37737 14.1053 2.63604 15.364C3.89472 16.6226 5.49836 17.4798 7.24419 17.8271C8.99002 18.1743 10.7996 17.9961 12.4442 17.3149C14.0887 16.6337 15.4943 15.4802 16.4832 14.0001C17.4722 12.5201 18 10.78 18 9C17.9974 6.61384 17.0484 4.32616 15.3611 2.63889C13.6738 0.951621 11.3862 0.00258081 9 0ZM9 15C8.85167 15 8.70666 14.956 8.58333 14.8736C8.45999 14.7912 8.36386 14.6741 8.3071 14.537C8.25033 14.4 8.23548 14.2492 8.26442 14.1037C8.29335 13.9582 8.36479 13.8246 8.46968 13.7197C8.57456 13.6148 8.7082 13.5434 8.85369 13.5144C8.99917 13.4855 9.14997 13.5003 9.28702 13.5571C9.42406 13.6139 9.5412 13.71 9.62361 13.8333C9.70602 13.9567 9.75 14.1017 9.75 14.25C9.75 14.4489 9.67099 14.6397 9.53034 14.7803C9.38968 14.921 9.19892 15 9 15ZM10.4475 9.3795C10.2262 9.51789 10.0452 9.71211 9.92275 9.94264C9.80031 10.1732 9.74073 10.4319 9.75 10.6928V11.25C9.75 11.4489 9.67099 11.6397 9.53034 11.7803C9.38968 11.921 9.19892 12 9 12C8.80109 12 8.61033 11.921 8.46968 11.7803C8.32902 11.6397 8.25 11.4489 8.25 11.25V10.6928C8.23892 10.1636 8.36968 9.64106 8.6287 9.17947C8.88772 8.71788 9.26556 8.33403 9.72301 8.06775C10.0001 7.91513 10.2219 7.6788 10.3566 7.39255C10.4913 7.10631 10.532 6.7848 10.473 6.474C10.4146 6.1779 10.2692 5.90595 10.0554 5.69287C9.8417 5.47979 9.56929 5.33526 9.27301 5.27775C9.0568 5.23773 8.83443 5.24574 8.62166 5.3012C8.40889 5.35666 8.21091 5.45822 8.04174 5.59869C7.87258 5.73916 7.73637 5.9151 7.64275 6.11406C7.54913 6.31301 7.5004 6.53012 7.5 6.75C7.5 6.94891 7.42099 7.13968 7.28033 7.28033C7.13968 7.42098 6.94892 7.5 6.75 7.5C6.55109 7.5 6.36033 7.42098 6.21968 7.28033C6.07902 7.13968 6 6.94891 6 6.75C6.00019 6.22088 6.14032 5.70122 6.40617 5.24374C6.67202 4.78626 7.05414 4.40722 7.51377 4.14509C7.97339 3.88296 8.49417 3.74705 9.02327 3.75115C9.55238 3.75526 10.071 3.89923 10.5265 4.16846C10.982 4.43769 11.3582 4.8226 11.6169 5.28415C11.8756 5.74571 12.0077 6.26747 11.9997 6.79653C11.9916 7.32559 11.8438 7.84312 11.5712 8.29662C11.2986 8.75012 10.911 9.1242 10.4475 9.3795Z" fill="#545454"/>
</g>
<defs>
<clipPath id="clip0_903_4547">
<rect width="18" height="18" fill="white"/>
</clipPath>
</defs>
</svg>
