<svg width="11" height="10" viewBox="0 0 11 10" fill="none" xmlns="http://www.w3.org/2000/svg">
<g clip-path="url(#clip0_1373_6985)">
<path d="M0.988333 7.96583C0.675751 8.27832 0.500094 8.70218 0.5 9.14417L0.5 9.99958H1.35542C1.79741 9.99949 2.22126 9.82383 2.53375 9.51125L8.09333 3.95167L6.54792 2.40625L0.988333 7.96583Z" fill="#545454"/>
<path d="M10.1439 0.355545C10.0424 0.253976 9.92192 0.173401 9.7893 0.118427C9.65668 0.0634523 9.51452 0.0351563 9.37096 0.0351562C9.22739 0.0351562 9.08523 0.0634523 8.95261 0.118427C8.81999 0.173401 8.6995 0.253976 8.59804 0.355545L7.13721 1.81679L8.68262 3.36221L10.1439 1.90138C10.2454 1.79992 10.326 1.67943 10.381 1.54681C10.436 1.41418 10.4643 1.27203 10.4643 1.12846C10.4643 0.984897 10.436 0.842739 10.381 0.710117C10.326 0.577494 10.2454 0.457008 10.1439 0.355545Z" fill="#545454"/>
</g>
<defs>
<clipPath id="clip0_1373_6985">
<rect width="10" height="10" fill="white" transform="translate(0.5)"/>
</clipPath>
</defs>
</svg>
