<svg width="42" height="42" viewBox="0 0 42 42" fill="none" xmlns="http://www.w3.org/2000/svg">
<path d="M19.25 22.75V12.25C19.25 11.2875 20.0375 10.5 21 10.5C21.9625 10.5 22.75 11.2875 22.75 12.25V22.75C22.75 23.7125 21.9625 24.5 21 24.5C20.0375 24.5 19.25 23.7125 19.25 22.75ZM21 26.25C19.5475 26.25 18.375 27.4225 18.375 28.875C18.375 30.3275 19.5475 31.5 21 31.5C22.4525 31.5 23.625 30.3275 23.625 28.875C23.625 27.4225 22.4525 26.25 21 26.25ZM41.265 34.79C40.04 37.1525 37.4675 38.5 34.2475 38.5H7.76996C4.53245 38.5 1.97745 37.1525 0.752455 34.79C-0.490046 32.41 -0.140046 29.365 1.62745 26.81L15.6975 4.55C16.94 2.765 18.9 1.75 21 1.75C23.1 1.75 25.06 2.765 26.25 4.4975L40.39 26.845C42.1575 29.4 42.49 32.4275 41.2475 34.79H41.265ZM37.5025 28.805C37.5025 28.805 37.4675 28.77 37.4675 28.735L23.345 6.4225C22.8375 5.705 21.9625 5.25 21 5.25C20.0375 5.25 19.1625 5.705 18.62 6.4925L4.53245 28.735C3.44745 30.275 3.20245 31.955 3.83245 33.1625C4.44495 34.3525 5.84495 35 7.75245 35H34.2125C36.12 35 37.52 34.3525 38.1325 33.1625C38.7625 31.955 38.5175 30.275 37.485 28.805H37.5025Z" fill="#2061F8"/>
</svg>
