<svg width="15" height="14" viewBox="0 0 15 14" fill="none" xmlns="http://www.w3.org/2000/svg">
<g clip-path="url(#clip0_1830_1481)">
<path d="M8.083 0.584265C8.083 0.429555 8.14446 0.281182 8.25385 0.171786C8.36325 0.0623897 8.51162 0.000931565 8.66633 0.000931565C10.2129 0.00263 11.6957 0.617757 12.7892 1.71135C13.8828 2.80495 14.498 4.28769 14.4997 5.83427C14.4997 5.98898 14.4382 6.13735 14.3288 6.24674C14.2194 6.35614 14.071 6.4176 13.9163 6.4176C13.7616 6.4176 13.6132 6.35614 13.5039 6.24674C13.3945 6.13735 13.333 5.98898 13.333 5.83427C13.3316 4.59701 12.8395 3.41084 11.9646 2.53597C11.0898 1.6611 9.90358 1.16899 8.66633 1.1676C8.51162 1.1676 8.36325 1.10614 8.25385 0.996744C8.14446 0.887348 8.083 0.738975 8.083 0.584265ZM8.66633 3.50093C9.28517 3.50093 9.87866 3.74676 10.3162 4.18435C10.7538 4.62193 10.9997 5.21543 10.9997 5.83427C10.9997 5.98898 11.0611 6.13735 11.1705 6.24674C11.2799 6.35614 11.4283 6.4176 11.583 6.4176C11.7377 6.4176 11.8861 6.35614 11.9955 6.24674C12.1049 6.13735 12.1663 5.98898 12.1663 5.83427C12.1654 4.90629 11.7964 4.01659 11.1402 3.36041C10.484 2.70424 9.59431 2.33519 8.66633 2.33426C8.51162 2.33426 8.36325 2.39572 8.25385 2.50512C8.14446 2.61452 8.083 2.76289 8.083 2.9176C8.083 3.07231 8.14446 3.22068 8.25385 3.33008C8.36325 3.43947 8.51162 3.50093 8.66633 3.50093ZM13.9706 9.76535C14.3086 10.1043 14.4985 10.5635 14.4985 11.0423C14.4985 11.521 14.3086 11.9802 13.9706 12.3192L13.4397 12.9311C8.66225 17.505 -2.96358 5.8821 1.53975 1.08943L2.21058 0.506098C2.54995 0.177493 3.00504 -0.00428981 3.47741 7.68889e-05C3.94978 0.00444358 4.40143 0.194609 4.73467 0.529432C4.75275 0.547515 5.83367 1.9516 5.83367 1.9516C6.1544 2.28855 6.33294 2.73614 6.33218 3.20133C6.33142 3.66653 6.15142 4.11353 5.82958 4.44943L5.15408 5.29877C5.52791 6.20708 6.07754 7.03258 6.77138 7.72782C7.46522 8.42307 8.28961 8.97436 9.19717 9.35002L10.0517 8.67043C10.3877 8.34885 10.8346 8.16905 11.2997 8.1684C11.7647 8.16775 12.2122 8.34629 12.549 8.66693C12.549 8.66693 13.9525 9.74727 13.9706 9.76535ZM13.1679 10.6135C13.1679 10.6135 11.772 9.5396 11.7539 9.52151C11.6337 9.40236 11.4714 9.3355 11.3021 9.3355C11.1329 9.3355 10.9705 9.40236 10.8503 9.52151C10.8346 9.53785 9.658 10.4753 9.658 10.4753C9.57871 10.5384 9.48435 10.5797 9.38421 10.5953C9.28407 10.6108 9.18161 10.6 9.08692 10.5639C7.91118 10.1262 6.84326 9.44086 5.95549 8.55439C5.06771 7.66793 4.38082 6.60102 3.94133 5.42593C3.90237 5.32995 3.88966 5.22532 3.90453 5.1228C3.91939 5.02028 3.96129 4.92356 4.02592 4.8426C4.02592 4.8426 4.96333 3.66543 4.97908 3.65027C5.09824 3.53009 5.1651 3.36771 5.1651 3.19847C5.1651 3.02924 5.09824 2.86686 4.97908 2.74668C4.961 2.72918 3.88708 1.3321 3.88708 1.3321C3.76511 1.22273 3.60592 1.16415 3.44214 1.16838C3.27837 1.17261 3.12242 1.23933 3.00625 1.35485L2.33542 1.93818C-0.955751 5.89552 9.119 15.4114 12.5869 12.1343L13.1183 11.5218C13.2429 11.4064 13.3177 11.2472 13.3269 11.0777C13.3362 10.9082 13.2791 10.7417 13.1679 10.6135Z" fill="#2061F8"/>
</g>
<defs>
<clipPath id="clip0_1830_1481">
<rect width="14" height="14" fill="white" transform="translate(0.5)"/>
</clipPath>
</defs>
</svg>
