<svg width="18" height="18" viewBox="0 0 18 18" fill="none" xmlns="http://www.w3.org/2000/svg">
<path d="M17.25 12.5656C17.25 10.6749 16.5248 9.64664 15.5408 9.09389C15.4598 3.71189 13.4332 1.30664 9 1.30664C4.56675 1.30664 2.535 3.71714 2.4585 9.11339C1.5165 9.66089 0.75 10.6771 0.75 12.5656C0.75 16.2331 3.4785 16.6569 5.53125 16.6569C5.8545 16.6569 6.141 16.4499 6.243 16.1424C7.008 13.8361 7.008 11.2944 6.243 8.98814C6.141 8.68139 5.8545 8.47364 5.53125 8.47364C5.17575 8.47364 4.602 8.47364 3.9735 8.58464C4.17525 3.81464 6.135 2.80514 9 2.80514C11.865 2.80514 13.8255 3.81539 14.0265 8.58764C13.5 8.49839 12.9645 8.47364 12.4688 8.47364C12.1455 8.47364 11.859 8.68064 11.757 8.98814C11.0962 10.9809 11.007 13.1484 11.4878 15.1891C10.6898 15.2026 9.9255 15.1794 9.20475 15.1209C8.784 15.0901 8.43 15.3954 8.397 15.8086C8.364 16.2211 8.6715 16.5826 9.084 16.6164C9.71325 16.6666 10.3725 16.6929 11.0557 16.6929C11.523 16.6929 12.0015 16.6809 12.489 16.6569C13.6913 16.6569 17.25 16.6344 17.25 12.5656ZM4.97775 15.1441C2.976 15.0406 2.25 14.3259 2.25 12.5656C2.25 10.8054 2.976 10.0906 4.97775 9.98714C5.43075 11.6679 5.43075 13.4626 4.97775 15.1434V15.1441ZM13.0223 15.1441C12.5693 13.4634 12.5693 11.6679 13.0223 9.98789C15.024 10.0914 15.75 10.8061 15.75 12.5664C15.75 14.3266 15.024 15.0406 13.0223 15.1441Z" fill="#1A1A1A"/>
</svg>
