<svg width="12" height="12" viewBox="0 0 12 12" fill="none" xmlns="http://www.w3.org/2000/svg">
<g clip-path="url(#clip0_877_359)">
<path d="M10.613 3.45C10.557 3.291 10.424 3.1715 10.2605 3.1315C10.2075 3.1185 9.36502 2.9165 8.15202 2.7785V2.6515C8.15202 1.465 7.18652 0.5 6.00002 0.5C4.81352 0.5 3.84852 1.4655 3.84852 2.6515V2.7785C2.63652 2.916 1.79302 3.118 1.74002 3.131C1.57552 3.171 1.44202 3.2915 1.38652 3.4515C1.36952 3.5 1.07302 4.36 0.916016 5.6425C1.56252 5.7785 3.65552 6.1765 6.00052 6.1765C8.34552 6.1765 10.439 5.778 11.0855 5.6425C10.9285 4.353 10.63 3.498 10.613 3.45ZM5.34802 2.6645V2.6515C5.34802 2.292 5.64002 2 5.99952 2C6.35902 2 6.65152 2.292 6.65152 2.6515V2.6645C6.43852 2.6565 6.22052 2.652 5.99952 2.652C5.77852 2.652 5.56102 2.6565 5.34802 2.6645Z" fill="#060F27"/>
<path d="M6.49934 7.16903V7.76053C6.49934 8.03653 6.27584 8.26003 5.99984 8.26003C5.72384 8.26003 5.50034 8.03653 5.50034 7.76053V7.16903C3.38234 7.12303 1.57084 6.79703 0.831836 6.64553C0.823836 6.82403 0.819336 7.00703 0.819336 7.19453C0.819336 9.31253 1.36334 10.6355 1.38684 10.701C1.44334 10.86 1.57584 10.98 1.73984 11.0195C1.81984 11.039 3.73534 11.499 6.00034 11.499C8.26534 11.499 10.1798 11.039 10.2608 11.0195C10.4253 10.9795 10.5583 10.859 10.6143 10.699C10.6373 10.633 11.1808 9.29403 11.1808 7.19403C11.1808 7.00653 11.1763 6.82303 11.1688 6.64453C10.4293 6.79603 8.61484 7.12203 6.49984 7.16853L6.49934 7.16903Z" fill="#060F27"/>
</g>
<defs>
<clipPath id="clip0_877_359">
<rect width="12" height="12" fill="white"/>
</clipPath>
</defs>
</svg>
