<svg width="48" height="48" viewBox="0 0 48 48" fill="none" xmlns="http://www.w3.org/2000/svg">
<path d="M42 7.99997H35.8C34.8431 3.34716 30.7502 0.006 25.9999 0H21.9999C17.2497 0.006 13.1567 3.34716 12.1999 7.99997H5.99997C4.89541 7.99997 4 8.89538 4 9.99994C4 11.1045 4.89541 12 5.99997 12H7.99994V38C8.00659 43.5201 12.4799 47.9934 18 48H30C35.5201 47.9934 39.9933 43.5201 40 38V12H42C43.1045 12 43.9999 11.1046 43.9999 10C43.9999 8.89547 43.1045 7.99997 42 7.99997ZM22 34C22 35.1046 21.1046 36 20 36C18.8954 36 18 35.1046 18 34V22C18 20.8955 18.8954 20.0001 19.9999 20.0001C21.1045 20.0001 21.9999 20.8955 21.9999 22V34H22ZM30 34C30 35.1046 29.1046 36 28 36C26.8954 36 26 35.1046 26 34V22C26 20.8955 26.8954 20.0001 28 20.0001C29.1046 20.0001 30 20.8955 30 22V34ZM16.342 7.99997C17.1927 5.60456 19.4581 4.00303 22 3.99994H26C28.542 4.00303 30.8073 5.60456 31.658 7.99997H16.342Z" fill="#EC2F1A"/>
</svg>
