<svg width="24" height="24" viewBox="0 0 24 24" fill="none" xmlns="http://www.w3.org/2000/svg">
<path d="M16.875 4.5H16.5V4.125C16.5 3.50325 15.996 3 15.375 3C14.754 3 14.25 3.50325 14.25 4.125V4.5H9.75V4.125C9.75 3.50325 9.246 3 8.625 3C8.004 3 7.5 3.50325 7.5 4.125V4.5H7.125C4.851 4.5 3 6.35025 3 8.625V16.875C3 19.1497 4.851 21 7.125 21H16.875C19.149 21 21 19.1497 21 16.875V8.625C21 6.35025 19.149 4.5 16.875 4.5ZM16.875 18.75H7.125C6.09075 18.75 5.25 17.9085 5.25 16.875V9.75H18.75V16.875C18.75 17.9085 17.9093 18.75 16.875 18.75ZM10.5 12.375V13.875C10.5 14.496 9.996 15 9.375 15H7.875C7.254 15 6.75 14.496 6.75 13.875V12.375C6.75 11.754 7.254 11.25 7.875 11.25H9.375C9.996 11.25 10.5 11.754 10.5 12.375Z" fill="#767676"/>
</svg>
