<svg width="375" height="302" viewBox="0 0 375 302" fill="none" xmlns="http://www.w3.org/2000/svg">
<g clip-path="url(#clip0_1759_1246)">
<rect width="375" height="302" fill="#2061F8"/>
<path d="M-50.9785 -19L5.77375 15.0514L77.2148 55.7795L-24.2716 91.1662L-50.9785 -19Z" fill="url(#paint0_linear_1759_1246)" fill-opacity="0.3"/>
<path d="M77.2144 55.7805L116.607 29.0735L156 1.03125L104.589 77.146L77.2144 117.206L49.1721 158.602L36.4863 142.578L77.2144 55.7805Z" fill="url(#paint1_linear_1759_1246)" fill-opacity="0.3"/>
<path d="M-65 108.526L33.8157 73.8065L77.2145 55.7793L-0.381325 191.985L-65 108.526Z" fill="url(#paint2_linear_1759_1246)" fill-opacity="0.3"/>
<path d="M-33.6191 -19L99.2479 -5.64653H147.32L77.2147 55.7795L-33.6191 -19Z" fill="url(#paint3_linear_1759_1246)" fill-opacity="0.3"/>
<path d="M242.886 -19L303.139 17.1519L378.988 60.3924L271.241 97.962L242.886 -19Z" fill="url(#paint4_linear_1759_1246)" fill-opacity="0.3"/>
<path d="M378.988 60.3922L420.81 32.0378L462.633 2.26562L408.051 83.0758L378.988 125.607L349.215 169.557L335.747 152.544L378.988 60.3922Z" fill="url(#paint5_linear_1759_1246)" fill-opacity="0.3"/>
<path d="M228 116.393L332.911 79.5318L378.987 60.3926L296.605 205L228 116.393Z" fill="url(#paint6_linear_1759_1246)" fill-opacity="0.3"/>
<path d="M261.316 -19L402.38 -4.82278H453.418L378.987 60.3924L261.316 -19Z" fill="url(#paint7_linear_1759_1246)" fill-opacity="0.3"/>
</g>
<defs>
<linearGradient id="paint0_linear_1759_1246" x1="13.1182" y1="-19" x2="13.1182" y2="91.1662" gradientUnits="userSpaceOnUse">
<stop stop-color="white"/>
<stop offset="1" stop-color="white" stop-opacity="0"/>
</linearGradient>
<linearGradient id="paint1_linear_1759_1246" x1="96.2431" y1="1.03125" x2="96.2431" y2="158.602" gradientUnits="userSpaceOnUse">
<stop stop-color="white"/>
<stop offset="1" stop-color="white" stop-opacity="0"/>
</linearGradient>
<linearGradient id="paint2_linear_1759_1246" x1="6.10725" y1="55.7793" x2="6.10725" y2="191.985" gradientUnits="userSpaceOnUse">
<stop stop-color="white"/>
<stop offset="1" stop-color="white" stop-opacity="0"/>
</linearGradient>
<linearGradient id="paint3_linear_1759_1246" x1="56.8507" y1="-19" x2="56.8507" y2="55.7795" gradientUnits="userSpaceOnUse">
<stop stop-color="white"/>
<stop offset="1" stop-color="white" stop-opacity="0"/>
</linearGradient>
<linearGradient id="paint4_linear_1759_1246" x1="310.937" y1="-19" x2="310.937" y2="97.962" gradientUnits="userSpaceOnUse">
<stop stop-color="white"/>
<stop offset="1" stop-color="white" stop-opacity="0"/>
</linearGradient>
<linearGradient id="paint5_linear_1759_1246" x1="399.19" y1="2.26562" x2="399.19" y2="169.557" gradientUnits="userSpaceOnUse">
<stop stop-color="white"/>
<stop offset="1" stop-color="white" stop-opacity="0"/>
</linearGradient>
<linearGradient id="paint6_linear_1759_1246" x1="303.494" y1="60.3926" x2="303.494" y2="205" gradientUnits="userSpaceOnUse">
<stop stop-color="white"/>
<stop offset="1" stop-color="white" stop-opacity="0"/>
</linearGradient>
<linearGradient id="paint7_linear_1759_1246" x1="357.367" y1="-19" x2="357.367" y2="60.3924" gradientUnits="userSpaceOnUse">
<stop stop-color="white"/>
<stop offset="1" stop-color="white" stop-opacity="0"/>
</linearGradient>
<clipPath id="clip0_1759_1246">
<rect width="375" height="302" fill="white"/>
</clipPath>
</defs>
</svg>
