<svg width="24" height="24" viewBox="0 0 24 24" fill="none" xmlns="http://www.w3.org/2000/svg">
<path d="M18.375 7.75H7.125C6.53325 7.75 5.9775 7.468 5.625 7.00075C5.96775 6.5455 6.513 6.25 7.125 6.25H19.875C21.354 6.2245 21.3533 4.02475 19.875 4H7.125C4.851 4 3 5.85025 3 8.125V16.375C3 18.6497 4.851 20.5 7.125 20.5H18.375C19.8225 20.5 21 19.3225 21 17.875V10.375C21 8.9275 19.8225 7.75 18.375 7.75ZM18.75 17.875C18.75 18.082 18.5813 18.25 18.375 18.25H7.125C6.09075 18.25 5.25 17.4085 5.25 16.375V9.547C5.82225 9.8395 6.4635 10 7.125 10H18.375C18.5813 10 18.75 10.168 18.75 10.375V17.875ZM17.25 14.125C17.2245 15.604 15.0247 15.6032 15 14.125C15.0255 12.646 17.2253 12.6468 17.25 14.125Z" fill="#767676"/>
</svg>
