<svg width="24" height="24" viewBox="0 0 24 24" fill="none" xmlns="http://www.w3.org/2000/svg">
    <path
        d="M9.50024 3C8.23848 2.99963 6.99701 3.3176 5.89078 3.92447C4.78454 4.53134 3.84929 5.40749 3.17161 6.47182C2.49393 7.53615 2.09572 8.75425 2.01385 10.0134C1.93198 11.2725 2.1691 12.5319 2.70324 13.675C2.45155 14.7168 2.22448 15.7645 2.02224 16.817C1.99147 16.9758 1.99982 17.1397 2.04658 17.2945C2.09334 17.4493 2.17711 17.5904 2.29063 17.7056C2.40416 17.8208 2.54403 17.9067 2.69815 17.9557C2.85228 18.0047 3.01603 18.0154 3.17524 17.987C3.79824 17.877 5.15324 17.627 6.41124 17.337C7.43088 17.7968 8.54046 18.0227 9.65871 17.9982C10.777 17.9737 11.8756 17.6994 12.8741 17.1953C13.8726 16.6913 14.7457 15.9703 15.4295 15.0851C16.1133 14.2 16.5905 13.1731 16.8261 12.0797C17.0617 10.9862 17.0497 9.85397 16.7911 8.76577C16.5324 7.67756 16.0337 6.66099 15.3313 5.79048C14.629 4.91998 13.7408 4.21759 12.7319 3.73476C11.7229 3.25193 10.6188 3.00088 9.50024 3ZM9.46224 19C10.8478 20.2882 12.6704 21.0029 14.5622 21C15.627 21.0013 16.6798 20.7753 17.6502 20.337C18.6932 20.581 19.8362 20.825 20.5632 20.977C20.7679 21.02 20.9801 21.0106 21.1802 20.9498C21.3803 20.8891 21.5619 20.7788 21.7081 20.6293C21.8543 20.4798 21.9605 20.2958 22.0168 20.0944C22.0731 19.893 22.0777 19.6807 22.0302 19.477C21.8682 18.774 21.6122 17.682 21.3592 16.674C21.8037 15.722 22.0432 14.6872 22.0624 13.6367C22.0815 12.5862 21.8798 11.5434 21.4703 10.5758C21.0607 9.60818 20.4526 8.73739 19.6851 8.01978C18.9177 7.30216 18.0081 6.75373 17.0152 6.41C17.3701 7.05486 17.639 7.74337 17.8152 8.458C18.6584 9.00149 19.3517 9.74786 19.8316 10.6287C20.3116 11.5096 20.5628 12.4969 20.5622 13.5C20.564 14.4557 20.336 15.3979 19.8972 16.247L19.7672 16.5L19.8372 16.776C20.0652 17.671 20.3042 18.676 20.4792 19.426C19.5634 19.2342 18.65 19.0308 17.7392 18.816L17.4752 18.754L17.2322 18.875C16.4282 19.275 15.5222 19.5 14.5622 19.5C13.5403 19.5019 12.5349 19.2416 11.6422 18.744C10.9297 18.923 10.1969 19.0091 9.46224 19Z"
        fill="#111111" />
</svg>
