<svg width="16" height="16" viewBox="0 0 16 16" fill="none" xmlns="http://www.w3.org/2000/svg">
<path d="M14.3333 15.9995C13.414 15.9995 12.6667 15.2515 12.6667 14.3328V8.99949C12.6667 8.44815 12.218 7.99949 11.6667 7.99949H4.33333C3.782 7.99949 3.33333 8.44815 3.33333 8.99949V14.3328C3.33333 15.2515 2.586 15.9995 1.66667 15.9995C0.747333 15.9995 0 15.2515 0 14.3328V6.37349C0 5.37415 0.494 4.44482 1.322 3.88682L6.322 0.51282C7.34 -0.174513 8.658 -0.17518 9.67733 0.51282L14.6773 3.88682C15.5053 4.44482 15.9993 5.37482 15.9993 6.37349V14.3328C15.9993 15.2515 15.2527 15.9995 14.3333 15.9995ZM4.33333 7.33282H11.6667C12.586 7.33282 13.3333 8.08082 13.3333 8.99949V14.3328C13.3333 14.8842 13.782 15.3328 14.3333 15.3328C14.8847 15.3328 15.3333 14.8842 15.3333 14.3328V6.37349C15.3333 5.59615 14.9493 4.87349 14.3053 4.43949L9.30533 1.06549C8.51267 0.530154 7.48733 0.530154 6.69467 1.06549L1.69467 4.43949C1.05067 4.87349 0.666667 5.59682 0.666667 6.37349V14.3328C0.666667 14.8842 1.11533 15.3328 1.66667 15.3328C2.218 15.3328 2.66667 14.8842 2.66667 14.3328V8.99949C2.66667 8.08082 3.414 7.33282 4.33333 7.33282ZM6.53333 15.9995H5.46667C5.02533 15.9995 4.66667 15.6402 4.66667 15.1995V14.1328C4.66667 13.6915 5.02533 13.3328 5.46667 13.3328H6.53333C6.97467 13.3328 7.33333 13.6922 7.33333 14.1328V15.1995C7.33333 15.6408 6.97467 15.9995 6.53333 15.9995ZM5.46667 13.9995C5.39333 13.9995 5.33333 14.0595 5.33333 14.1328V15.1995C5.33333 15.2728 5.39333 15.3328 5.46667 15.3328H6.53333C6.60667 15.3328 6.66667 15.2728 6.66667 15.1995V14.1328C6.66667 14.0595 6.60667 13.9995 6.53333 13.9995H5.46667ZM6.53333 11.9995H5.46667C5.02533 11.9995 4.66667 11.6402 4.66667 11.1995V10.1328C4.66667 9.69149 5.02533 9.33282 5.46667 9.33282H6.53333C6.97467 9.33282 7.33333 9.69215 7.33333 10.1328V11.1995C7.33333 11.6408 6.97467 11.9995 6.53333 11.9995ZM5.46667 9.99949C5.39333 9.99949 5.33333 10.0595 5.33333 10.1328V11.1995C5.33333 11.2728 5.39333 11.3328 5.46667 11.3328H6.53333C6.60667 11.3328 6.66667 11.2728 6.66667 11.1995V10.1328C6.66667 10.0595 6.60667 9.99949 6.53333 9.99949H5.46667ZM10.5333 15.9995H9.46667C9.02533 15.9995 8.66667 15.6402 8.66667 15.1995V14.1328C8.66667 13.6915 9.02533 13.3328 9.46667 13.3328H10.5333C10.9747 13.3328 11.3333 13.6922 11.3333 14.1328V15.1995C11.3333 15.6408 10.9747 15.9995 10.5333 15.9995ZM9.46667 13.9995C9.39333 13.9995 9.33333 14.0595 9.33333 14.1328V15.1995C9.33333 15.2728 9.39333 15.3328 9.46667 15.3328H10.5333C10.6067 15.3328 10.6667 15.2728 10.6667 15.1995V14.1328C10.6667 14.0595 10.6067 13.9995 10.5333 13.9995H9.46667Z" fill="#060F27"/>
</svg>
