<svg width="14" height="14" viewBox="0 0 14 14" fill="none" xmlns="http://www.w3.org/2000/svg">
<g clip-path="url(#clip0_940_120)">
<path d="M0.000198364 3.64047C0.000198364 8.09714 5.90936 14.0005 10.3602 14.0005C11.3344 14.0005 12.2444 13.633 12.9152 12.9621L13.4985 12.2913C14.1752 11.6146 14.1752 10.4713 13.4694 9.76547C13.4519 9.74797 12.046 8.6688 12.046 8.6688C11.346 8.0038 10.2435 8.0038 9.54936 8.6688L8.6977 9.3513C6.83103 8.55797 5.50686 7.22797 4.6552 5.29714L5.33186 4.44547C6.0027 3.7513 6.0027 2.64297 5.33186 1.9488C5.33186 1.9488 4.2527 0.542969 4.2352 0.525469C3.52936 -0.180365 2.38603 -0.180365 1.6802 0.525469L1.0677 1.0563C0.367698 1.75047 0.000198364 2.66047 0.000198364 3.63464V3.64047Z" fill="white"/>
</g>
<defs>
<clipPath id="clip0_940_120">
<rect width="14" height="14" fill="white" transform="matrix(-1 0 0 1 14 0)"/>
</clipPath>
</defs>
</svg>
