<svg width="17" height="18" viewBox="0 0 17 18" fill="none" xmlns="http://www.w3.org/2000/svg">
<path d="M5 6V4.5H11V6H5ZM2.75 16.5C2.55109 16.5 2.36032 16.421 2.21967 16.2803C2.07902 16.1397 2 15.9489 2 15.75V2.25C2 2.05109 2.07902 1.86032 2.21967 1.71967C2.36032 1.57902 2.55109 1.5 2.75 1.5H14V8.625C14.5569 8.85939 15.0655 9.19507 15.5 9.615V0H2.75C2.15326 0 1.58097 0.237053 1.15901 0.65901C0.737053 1.08097 0.5 1.65326 0.5 2.25V15.75C0.5 16.3467 0.737053 16.919 1.15901 17.341C1.58097 17.7629 2.15326 18 2.75 18H12.125C11.4691 17.9999 10.82 17.867 10.2168 17.6092C9.61372 17.3514 9.06907 16.9741 8.61575 16.5H2.75ZM15.9072 17.9678L13.9145 15.975C13.3799 16.3162 12.7592 16.4983 12.125 16.5C11.4575 16.5 10.805 16.3021 10.25 15.9312C9.69493 15.5604 9.26235 15.0333 9.00691 14.4166C8.75146 13.7999 8.68462 13.1213 8.81485 12.4666C8.94507 11.8119 9.26651 11.2105 9.73851 10.7385C10.2105 10.2665 10.8119 9.94507 11.4666 9.81485C12.1213 9.68462 12.7999 9.75146 13.4166 10.0069C14.0333 10.2624 14.5604 10.6949 14.9312 11.25C15.3021 11.805 15.5 12.4575 15.5 13.125C15.4983 13.7592 15.3162 14.3799 14.975 14.9145L16.9678 16.9072L15.9072 17.9678ZM12.125 15C12.4958 15 12.8584 14.89 13.1667 14.684C13.475 14.478 13.7154 14.1851 13.8573 13.8425C13.9992 13.4999 14.0363 13.1229 13.964 12.7592C13.8916 12.3955 13.713 12.0614 13.4508 11.7992C13.1886 11.537 12.8545 11.3584 12.4908 11.286C12.1271 11.2137 11.7501 11.2508 11.4075 11.3927C11.0649 11.5346 10.772 11.775 10.566 12.0833C10.36 12.3916 10.25 12.7542 10.25 13.125C10.25 13.6223 10.4475 14.0992 10.7992 14.4508C11.1508 14.8025 11.6277 15 12.125 15Z" fill="#2061F8"/>
</svg>
