<svg width="14" height="14" viewBox="0 0 14 14" fill="none" xmlns="http://www.w3.org/2000/svg">
<path d="M13.1499 4.94662L9.05261 0.849289C7.92153 -0.281794 6.07878 -0.281794 4.94769 0.849289L0.849777 4.94662C-0.281306 6.07829 -0.281306 7.91987 0.849777 9.05154L4.94711 13.1489C5.51294 13.7147 6.25611 13.997 6.99986 13.997C7.74361 13.997 8.48678 13.7147 9.05261 13.1489L13.1499 9.05154C14.281 7.91987 14.281 6.07829 13.1499 4.94662ZM12.3251 8.22671L8.22778 12.324C7.55111 12.9995 6.44919 12.9995 5.77253 12.324L1.67461 8.22671C0.998527 7.55004 0.998527 6.44812 1.67461 5.77146L5.77253 1.67412C6.44919 0.997456 7.55111 0.997456 8.22778 1.67412L12.3251 5.77146C13.0012 6.44812 13.0012 7.55004 12.3251 8.22671ZM9.99119 5.17821C10.6737 5.86071 10.6737 6.97021 9.99119 7.65271L8.57894 9.06496C8.46519 9.17871 8.31586 9.23587 8.16653 9.23587C8.01719 9.23587 7.86786 9.17871 7.75411 9.06496C7.52603 8.83687 7.52603 8.46821 7.75411 8.24012L8.99544 6.99879H6.41653C6.09453 6.99879 5.83319 7.26012 5.83319 7.58212V9.33212C5.83319 9.65471 5.57244 9.91546 5.24986 9.91546C4.92728 9.91546 4.66653 9.65471 4.66653 9.33212V7.58212C4.66653 6.61729 5.45169 5.83212 6.41653 5.83212H8.99544L7.75411 4.59079C7.52603 4.36271 7.52603 3.99404 7.75411 3.76596C7.98219 3.53787 8.35086 3.53787 8.57894 3.76596L9.99119 5.17821Z" fill="#2061F8"/>
</svg>
