<svg width="25" height="20" viewBox="0 0 25 20" fill="none" xmlns="http://www.w3.org/2000/svg">
<path d="M20 0H5C2.519 0 0.5 2.019 0.5 4.5V19.5C0.5 19.776 0.724 20 1 20C1.276 20 1.5 19.776 1.5 19.5V17H23.5V19.5C23.5 19.776 23.724 20 24 20C24.276 20 24.5 19.776 24.5 19.5V4.5C24.5 2.019 22.481 0 20 0ZM5 1H20C21.93 1 23.5 2.57 23.5 4.5V12H21.5V10.5C21.5 8.57 19.93 7 18 7H15.5C14.228 7 13.113 7.682 12.5 8.699C11.887 7.682 10.772 7 9.5 7H7C5.07 7 3.5 8.57 3.5 10.5V12H1.5V4.5C1.5 2.57 3.07 1 5 1ZM13 12V10.5C13 9.122 14.121 8 15.5 8H18C19.379 8 20.5 9.122 20.5 10.5V12H13ZM4.5 12V10.5C4.5 9.122 5.622 8 7 8H9.5C10.878 8 12 9.122 12 10.5V12H4.5ZM1.5 16V13H23.5V16H1.5Z" fill="black"/>
</svg>
