<svg width="10" height="10" viewBox="0 0 10 10" fill="none" xmlns="http://www.w3.org/2000/svg">
<g clip-path="url(#clip0_1759_1502)">
<path d="M0.488333 7.96583C0.175751 8.27832 9.43957e-05 8.70218 0 9.14417L0 9.99958H0.855417C1.29741 9.99949 1.72126 9.82383 2.03375 9.51125L7.59333 3.95167L6.04792 2.40625L0.488333 7.96583Z" fill="#2061F8"/>
<path d="M9.64387 0.355545C9.54241 0.253976 9.42192 0.173401 9.2893 0.118427C9.15668 0.0634523 9.01452 0.0351563 8.87096 0.0351562C8.72739 0.0351562 8.58523 0.0634523 8.45261 0.118427C8.31999 0.173401 8.1995 0.253976 8.09804 0.355545L6.63721 1.81679L8.18262 3.36221L9.64387 1.90138C9.74544 1.79992 9.82602 1.67943 9.88099 1.54681C9.93597 1.41418 9.96426 1.27203 9.96426 1.12846C9.96426 0.984897 9.93597 0.842739 9.88099 0.710117C9.82602 0.577494 9.74544 0.457008 9.64387 0.355545Z" fill="#2061F8"/>
</g>
<defs>
<clipPath id="clip0_1759_1502">
<rect width="10" height="10" fill="white"/>
</clipPath>
</defs>
</svg>
