<svg width="24" height="24" viewBox="0 0 24 24" fill="none" xmlns="http://www.w3.org/2000/svg">
<path d="M10.985 24C12.7961 24 14.3112 22.7089 14.6591 21H7.31104C7.65912 22.7089 9.17413 24 10.985 24Z" fill="#111111"/>
<path d="M17.9974 11.999C17.9934 11.999 17.9894 11.9999 17.9854 11.9999C14.1264 11.9999 10.9854 8.85986 10.9854 5C10.9854 3.9389 11.2295 2.93585 11.6545 2.03387C11.4344 2.013 11.2114 2 10.9854 2C7.11952 2 3.98549 5.13385 3.98549 8.99994V11.7879C3.98549 13.7669 3.11848 15.6349 1.59742 16.9209C1.09041 17.3539 0.865369 18.0439 1.04738 18.717C1.25941 19.4999 2.0334 20 2.84547 20H19.1204C19.9724 20 20.7755 19.4479 20.9484 18.613C21.0824 17.967 20.8524 17.3219 20.3515 16.9009C18.8974 15.682 18.0564 13.8909 17.9974 11.999Z" fill="#111111"/>
<path d="M22.9848 5.00006C22.9848 7.76147 20.7463 9.99994 17.9847 9.99994C15.2233 9.99994 12.9849 7.76147 12.9849 5.00006C12.9849 2.23865 15.2233 0 17.9847 0C20.7463 0 22.9848 2.23865 22.9848 5.00006Z" fill="#D32027"/>
</svg>
