<svg width="24" height="24" viewBox="0 0 24 24" fill="none" xmlns="http://www.w3.org/2000/svg">
<path d="M20.2313 9.52044L14.9168 4.20595C13.3047 2.59802 10.6953 2.59802 9.08326 4.20595L3.76877 9.52044C3.2749 10.0117 2.99808 10.6801 3.00001 11.3767V19.1602C3.00166 20.1761 3.8253 20.9991 4.84128 20.9999H19.1587C20.1747 20.9991 20.9983 20.1761 21 19.1602V11.3767C21.0019 10.6801 20.7251 10.0117 20.2313 9.52044ZM18.75 18.7499H15V16.3634C15 14.782 13.718 13.4999 12.1365 13.4999H11.8635C10.2821 13.4999 9.00001 14.782 9.00001 16.3634V18.7499H5.25001V11.3767C5.25025 11.2772 5.28956 11.1819 5.35952 11.1112L10.674 5.7967C11.4061 5.06436 12.5933 5.06422 13.3257 5.79635C13.3258 5.79645 13.3259 5.7966 13.326 5.7967L18.6405 11.1112C18.7104 11.1819 18.7498 11.2772 18.75 11.3767V18.7499H18.75Z" fill="#767676"/>
</svg>
