<svg width="41" height="40" viewBox="0 0 41 40" fill="none" xmlns="http://www.w3.org/2000/svg">
<rect x="0.5" width="40" height="40" rx="8" fill="#E5EAF5"/>
<g clip-path="url(#clip0_903_2132)">
<path d="M17.5 17V15.5H23.5V17H17.5ZM15.25 27.5C15.0511 27.5 14.8603 27.421 14.7197 27.2803C14.579 27.1397 14.5 26.9489 14.5 26.75V13.25C14.5 13.0511 14.579 12.8603 14.7197 12.7197C14.8603 12.579 15.0511 12.5 15.25 12.5H26.5V19.625C27.0569 19.8594 27.5655 20.1951 28 20.615V11H15.25C14.6533 11 14.081 11.2371 13.659 11.659C13.2371 12.081 13 12.6533 13 13.25V26.75C13 27.3467 13.2371 27.919 13.659 28.341C14.081 28.7629 14.6533 29 15.25 29H24.625C23.9691 28.9999 23.32 28.867 22.7168 28.6092C22.1137 28.3514 21.5691 27.9741 21.1158 27.5H15.25ZM28.4072 28.9678L26.4145 26.975C25.8799 27.3162 25.2592 27.4983 24.625 27.5C23.9575 27.5 23.305 27.3021 22.75 26.9312C22.1949 26.5604 21.7624 26.0333 21.5069 25.4166C21.2515 24.7999 21.1846 24.1213 21.3148 23.4666C21.4451 22.8119 21.7665 22.2105 22.2385 21.7385C22.7105 21.2665 23.3119 20.9451 23.9666 20.8148C24.6213 20.6846 25.2999 20.7515 25.9166 21.0069C26.5333 21.2624 27.0604 21.6949 27.4312 22.25C27.8021 22.805 28 23.4575 28 24.125C27.9983 24.7592 27.8162 25.3799 27.475 25.9145L29.4678 27.9072L28.4072 28.9678ZM24.625 26C24.9958 26 25.3584 25.89 25.6667 25.684C25.975 25.478 26.2154 25.1851 26.3573 24.8425C26.4992 24.4999 26.5363 24.1229 26.464 23.7592C26.3916 23.3955 26.213 23.0614 25.9508 22.7992C25.6886 22.537 25.3545 22.3584 24.9908 22.286C24.6271 22.2137 24.2501 22.2508 23.9075 22.3927C23.5649 22.5346 23.272 22.775 23.066 23.0833C22.86 23.3916 22.75 23.7542 22.75 24.125C22.75 24.6223 22.9475 25.0992 23.2992 25.4508C23.6508 25.8025 24.1277 26 24.625 26Z" fill="#2061F8"/>
</g>
<defs>
<clipPath id="clip0_903_2132">
<rect width="18" height="18" fill="white" transform="translate(11.5 11)"/>
</clipPath>
</defs>
</svg>
