<svg width="17" height="16" viewBox="0 0 17 16" fill="none" xmlns="http://www.w3.org/2000/svg">
<g clip-path="url(#clip0_1373_6934)">
<path d="M16.2989 1.14648L3.95898 13.4831C4.22576 13.6131 4.51837 13.6814 4.81513 13.6829H6.92851C7.10531 13.6825 7.27493 13.7528 7.39957 13.8782L8.54488 15.0228C9.16598 15.6482 10.0107 16.0002 10.8921 16.0009C11.256 16.0006 11.6174 15.9409 11.9621 15.8243C13.1505 15.4347 14.0148 14.4046 14.1921 13.1666L16.4434 2.47303C16.5509 2.02745 16.4998 1.55839 16.2989 1.14648Z" fill="white"/>
<path d="M14.0469 0.0516016L3.37929 2.29894C1.55658 2.54935 0.281967 4.22996 0.532378 6.05268C0.631288 6.7725 0.962807 7.44028 1.47644 7.95419L2.62109 9.09885C2.7462 9.22393 2.81644 9.39364 2.81632 9.57056V11.6839C2.81785 11.9807 2.88618 12.2733 3.0162 12.5401L15.3541 0.2002C14.9486 0.000944568 14.4867 -0.0515551 14.0469 0.0516016Z" fill="white"/>
</g>
<defs>
<clipPath id="clip0_1373_6934">
<rect width="16" height="16" fill="white" transform="translate(0.5)"/>
</clipPath>
</defs>
</svg>
