<svg width="25" height="24" viewBox="0 0 25 24" fill="none" xmlns="http://www.w3.org/2000/svg">
<path d="M24 17H23.5V7.99996H24C24.276 7.99996 24.5 7.77596 24.5 7.49996C24.5 7.22396 24.276 6.99996 24 6.99996H23.5V2.99996C23.5 2.53896 23.313 2.08896 22.987 1.76296L21.737 0.512965C21.054 -0.169035 19.945 -0.169035 19.262 0.512965L18.012 1.76296C17.686 2.08896 17.499 2.53896 17.499 2.99996V6.99996H15.499V2.99996C15.499 2.53896 15.312 2.08896 14.986 1.76296L13.736 0.512965C13.053 -0.169035 11.944 -0.169035 11.261 0.512965L10.011 1.76296C9.685 2.08896 9.498 2.53896 9.498 2.99996V6.99996H7.498V2.99996C7.498 2.53896 7.311 2.08896 6.985 1.76296L5.735 0.512965C5.055 -0.169035 3.945 -0.169035 3.263 0.512965L2.013 1.76296C1.687 2.08896 1.5 2.53896 1.5 2.99996V6.99996H1C0.724 6.99996 0.5 7.22396 0.5 7.49996C0.5 7.77596 0.724 7.99996 1 7.99996H1.5V17H1C0.724 17 0.5 17.224 0.5 17.5C0.5 17.776 0.724 18 1 18H1.5V22C1.5 23.103 2.397 24 3.5 24H5.5C6.603 24 7.5 23.103 7.5 22V18H9.5V22C9.5 23.103 10.397 24 11.5 24H13.5C14.603 24 15.5 23.103 15.5 22V18H17.5V22C17.5 23.103 18.397 24 19.5 24H21.5C22.603 24 23.5 23.103 23.5 22V18H24C24.276 18 24.5 17.776 24.5 17.5C24.5 17.224 24.276 17 24 17ZM22.5 17H18.5V7.99996H22.5V17ZM18.5 2.99996C18.5 2.80296 18.58 2.60896 18.72 2.46996L19.97 1.21996C20.116 1.07396 20.308 0.999965 20.5 0.999965C20.692 0.999965 20.884 1.07296 21.03 1.21996L22.28 2.46996C22.42 2.60996 22.5 2.80296 22.5 2.99996V6.99996H18.5V2.99996ZM10.5 2.99996C10.5 2.80296 10.58 2.60896 10.72 2.46996L11.97 1.21996C12.116 1.07396 12.308 0.999965 12.5 0.999965C12.692 0.999965 12.884 1.07296 13.03 1.21996L14.28 2.46996C14.42 2.60996 14.5 2.80296 14.5 2.99996V6.99996H10.5V2.99996ZM14.5 7.99996V17H10.5V7.99996H14.5ZM2.5 2.99996C2.5 2.80296 2.58 2.60896 2.72 2.46996L3.97 1.21996C4.116 1.07396 4.308 0.999965 4.5 0.999965C4.692 0.999965 4.884 1.07296 5.03 1.21996L6.28 2.46996C6.42 2.60996 6.5 2.80296 6.5 2.99996V6.99996H2.5V2.99996ZM2.5 7.99996H6.5V17H2.5V7.99996ZM6.5 22C6.5 22.552 6.051 23 5.5 23H3.5C2.949 23 2.5 22.552 2.5 22V18H6.5V22ZM7.5 17V7.99996H9.5V17H7.5ZM14.5 22C14.5 22.552 14.051 23 13.5 23H11.5C10.949 23 10.5 22.552 10.5 22V18H14.5V22ZM15.5 17V7.99996H17.5V17H15.5ZM22.5 22C22.5 22.552 22.051 23 21.5 23H19.5C18.949 23 18.5 22.552 18.5 22V18H22.5V22Z" fill="black"/>
</svg>
