<svg width="20" height="24" viewBox="0 0 20 24" fill="none" xmlns="http://www.w3.org/2000/svg">
<path d="M17.5 0H2.5C1.121 0 0 1.122 0 2.5V24H20V2.5C20 1.122 18.879 0 17.5 0ZM19 23H1V2.5C1 1.673 1.673 1 2.5 1H17.5C18.327 1 19 1.673 19 2.5V23ZM4 5C3.448 5 3 4.552 3 4C3 3.448 3.448 3 4 3C4.552 3 5 3.448 5 4C5 4.552 4.552 5 4 5ZM7 4C7 3.448 7.448 3 8 3C8.552 3 9 3.448 9 4C9 4.552 8.552 5 8 5C7.448 5 7 4.552 7 4ZM10 8C6.691 8 4 10.691 4 14C4 17.309 6.691 20 10 20C13.309 20 16 17.309 16 14C16 10.691 13.309 8 10 8ZM10 19C7.414 19 5.306 17.02 5.051 14.5H9V13.5H5.051C5.306 10.98 7.415 9 10 9C12.757 9 15 11.243 15 14C15 16.757 12.757 19 10 19Z" fill="black"/>
</svg>
