<svg width="18" height="18" viewBox="0 0 18 18" fill="none" xmlns="http://www.w3.org/2000/svg">
<g clip-path="url(#clip0_1768_1065)">
<path d="M14.2498 3H14.1741C13.8253 1.29075 12.3111 0 10.4998 0H3.74981C1.68206 0 -0.000187971 1.68225 -0.000187971 3.75V13.3912C-0.040688 14.6385 1.48781 15.4575 2.50406 14.7315L4.72931 13.248C5.24681 14.7007 6.62156 15.75 8.24981 15.75H12.5226L15.4948 17.7315C16.5118 18.4568 18.0396 17.6385 17.9998 16.3913V6.75C17.9998 4.68225 16.3176 3 14.2498 3ZM1.67156 13.4835C1.63406 13.5428 1.47056 13.4542 1.49981 13.3912V3.75C1.49981 2.5095 2.50931 1.5 3.74981 1.5H10.4998C11.7403 1.5 12.7498 2.5095 12.7498 3.75V9C12.7498 10.2405 11.7403 11.25 10.4998 11.25H5.24981C5.10131 11.2493 4.96256 11.3085 4.83356 11.376L1.67156 13.4835ZM16.4998 16.3913C16.5291 16.4557 16.3626 16.5435 16.3273 16.4835L13.1661 14.376C13.0431 14.2942 12.8983 14.25 12.7498 14.25H8.24981C7.27331 14.25 6.44831 13.6208 6.13781 12.75H10.4998C12.5676 12.75 14.2498 11.0677 14.2498 9V4.5C15.4903 4.5 16.4998 5.5095 16.4998 6.75V16.3913ZM5.77481 9H4.49981C4.08581 9 3.74981 8.664 3.74981 8.25V4.5C3.74981 4.086 4.08581 3.75 4.49981 3.75H5.77481C6.10631 3.75 6.37481 4.0185 6.37481 4.35C6.37481 4.6815 6.10631 4.95 5.77481 4.95H4.94906V5.77575H5.77481C6.10631 5.77575 6.37481 6.04425 6.37481 6.37575C6.37481 6.70725 6.10631 6.97575 5.77481 6.97575H4.94906V7.8015H5.77481C6.10631 7.8015 6.37481 8.07 6.37481 8.4015C6.37481 8.733 6.10631 9.0015 5.77481 9.0015V9ZM7.12481 8.43975V4.4355C7.12481 4.05675 7.43156 3.75 7.81031 3.75C8.07581 3.75 8.31656 3.903 8.43056 4.143L9.50531 6.41625V4.31025C9.50531 4.00125 9.75581 3.75 10.0656 3.75C10.3753 3.75 10.6258 4.0005 10.6258 4.31025V8.3145C10.6258 8.69325 10.3191 9 9.94031 9C9.67556 9 9.43406 8.847 9.32081 8.60775L8.24681 6.339V8.43975C8.24681 8.74875 7.99631 9 7.68656 9C7.37681 9 7.12631 8.7495 7.12631 8.43975H7.12481Z" fill="#1A1A1A"/>
</g>
<defs>
<clipPath id="clip0_1768_1065">
<rect width="18" height="18" fill="white"/>
</clipPath>
</defs>
</svg>
