<svg width="14" height="14" viewBox="0 0 14 14" fill="none" xmlns="http://www.w3.org/2000/svg">
<g clip-path="url(#clip0_1830_2061)">
<path d="M-0.000289917 3.64047C-0.000289917 8.09714 5.90888 14.0005 10.3597 14.0005C11.3339 14.0005 12.2439 13.633 12.9147 12.9621L13.498 12.2913C14.1747 11.6146 14.1747 10.4713 13.4689 9.76547C13.4514 9.74797 12.0455 8.6688 12.0455 8.6688C11.3455 8.0038 10.243 8.0038 9.54887 8.6688L8.69721 9.3513C6.83054 8.55797 5.50638 7.22797 4.65471 5.29714L5.33138 4.44547C6.00221 3.7513 6.00221 2.64297 5.33138 1.9488C5.33138 1.9488 4.25221 0.542969 4.23471 0.525469C3.52888 -0.180365 2.38554 -0.180365 1.67971 0.525469L1.06721 1.0563C0.367209 1.75047 -0.000289917 2.66047 -0.000289917 3.63464V3.64047Z" fill="white"/>
</g>
<defs>
<clipPath id="clip0_1830_2061">
<rect width="14" height="14" fill="white" transform="matrix(-1 0 0 1 14 0)"/>
</clipPath>
</defs>
</svg>
