<svg width="17" height="16" viewBox="0 0 17 16" fill="none" xmlns="http://www.w3.org/2000/svg">
<path d="M16.1667 15.3333H15.8333V3.07933C15.8333 3.07933 16.4493 1.848 16.4553 1.824C16.566 1.38267 16.4687 0.923333 16.1887 0.564667C15.9087 0.206 15.4873 0 15.032 0H1.968C1.51333 0 1.09133 0.206 0.811333 0.564667C0.531333 0.923333 0.434 1.382 0.544667 1.82333C0.550667 1.84733 1.16667 3.07867 1.16667 3.07867V15.3327H0.833333C0.649333 15.3327 0.5 15.482 0.5 15.666C0.5 15.85 0.649333 15.9993 0.833333 15.9993H2.83333C3.38467 15.9993 3.83333 15.5507 3.83333 14.9993V9.78067C3.83333 8.624 4.56467 7.58467 5.65333 7.19533C7.61333 6.49333 9.38667 6.49333 11.3467 7.19533C12.4353 7.58467 13.1667 8.624 13.1667 9.78067V14.9993C13.1667 15.5507 13.6153 15.9993 14.1667 15.9993H16.1667C16.3507 15.9993 16.5 15.85 16.5 15.666C16.5 15.482 16.3507 15.3333 16.1667 15.3333ZM15.1667 15.3333H14.1667C13.9827 15.3333 13.8333 15.184 13.8333 15V9.78133C13.8333 8.34333 12.924 7.052 11.5713 6.568C9.46733 5.814 7.53267 5.814 5.42867 6.568C4.076 7.052 3.16667 8.34333 3.16667 9.78133V15C3.16667 15.184 3.01733 15.3333 2.83333 15.3333H1.83333V3.33333H15.1667V15.3333ZM15.8167 1.62867L15.2947 2.66667H1.70533L1.18333 1.62867C1.136 1.398 1.19067 1.16133 1.33667 0.974667C1.48933 0.779333 1.71933 0.666667 1.968 0.666667H15.032C15.2807 0.666667 15.5107 0.778667 15.6633 0.974667C15.8093 1.16133 15.864 1.39867 15.8167 1.62867ZM9.05533 8.508C8.90133 8.37 8.69467 8.30867 8.49 8.34133C8.28733 8.37267 8.11133 8.492 8.00733 8.66733C7.70733 9.17467 7.636 9.782 7.57333 10.3173C7.49 11.0253 7.422 11.266 7.25733 11.32C7.22533 11.212 7.20067 11.0207 7.186 10.9067C7.16 10.7053 7.136 10.5153 7.07267 10.372C6.984 10.1713 6.80067 10.0347 6.58267 10.0053C6.35933 9.97533 6.146 10.062 6.00533 10.236C5.46867 10.8993 4.824 12.4487 5.37933 13.7827C5.93867 15.128 7.14067 15.994 8.68467 15.994C10.4527 15.994 11.8327 14.4233 11.8333 12.6533C11.8333 10.98 10.1147 9.45 9.05533 8.508ZM9.00467 15.0747C8.744 15.3787 8.22933 15.378 7.96933 15.0747C7.74467 14.812 7.78067 14.3793 8.05067 14.1093L8.47667 13.6627L8.924 14.1093C9.19333 14.3787 9.23 14.812 9.00533 15.0747H9.00467ZM9.77267 14.994C9.892 14.5313 9.76467 14.0087 9.39467 13.6387L8.948 13.192C8.694 12.9373 8.28 12.9373 8.026 13.192L7.57933 13.6387C7.22 13.998 7.09067 14.502 7.19267 14.9547C6.68133 14.6427 6.256 14.1547 5.99467 13.528C5.57467 12.5173 6.05133 11.24 6.46333 10.6427C6.48733 10.6967 6.50933 10.8673 6.52533 10.992C6.57667 11.394 6.654 12.0007 7.16667 12.0007C8.04667 12.0007 8.15133 11.1113 8.23533 10.396C8.29067 9.926 8.35333 9.39333 8.59267 9.00067C8.598 8.99867 8.60667 9.00067 8.612 9.006L8.73067 9.112C9.70133 9.97533 11.1673 11.28 11.1667 12.6547C11.1667 13.6607 10.602 14.536 9.77267 14.994Z" fill="#060F27"/>
</svg>
