<svg width="18" height="18" viewBox="0 0 18 18" fill="none" xmlns="http://www.w3.org/2000/svg">
<g clip-path="url(#clip0_853_732)">
<path d="M14.25 9.03423C13.8352 9.03423 13.5 9.37027 13.5 9.78418V15.7842C13.5 16.1974 13.164 16.5342 12.75 16.5342H2.25C1.83595 16.5342 1.50005 16.1974 1.50005 15.7842V5.28418C1.50005 4.87096 1.83595 4.53423 2.25 4.53423H8.25005C8.66478 4.53423 9 4.19818 9 3.78427C9 3.37022 8.66478 3.03418 8.25005 3.03418H2.25C1.00951 3.03418 0 4.04369 0 5.28418V15.7842C0 17.0247 1.00951 18.0342 2.25 18.0342H12.75C13.9905 18.0342 15 17.0247 15 15.7842V9.78418C15 9.36945 14.6647 9.03423 14.25 9.03423Z" fill="#2061F8"/>
<path d="M7.03185 8.35098C6.97939 8.40344 6.9441 8.47018 6.92913 8.54214L6.3989 11.1942C6.37418 11.3172 6.41318 11.4439 6.50162 11.5332C6.5729 11.6044 6.66889 11.6426 6.76722 11.6426C6.79111 11.6426 6.81597 11.6404 6.84069 11.6352L9.49196 11.105C9.56544 11.0899 9.63218 11.0547 9.68395 11.0021L15.6179 5.06813L12.9667 2.41699L7.03185 8.35098Z" fill="#2061F8"/>
<path d="M17.4509 0.583614C16.7198 -0.147663 15.5302 -0.147663 14.7997 0.583614L13.7617 1.62155L16.413 4.27282L17.4509 3.23475C17.805 2.88154 18 2.4105 18 1.90953C18 1.40855 17.805 0.937512 17.4509 0.583614Z" fill="#2061F8"/>
</g>
<defs>
<clipPath id="clip0_853_732">
<rect width="18" height="18" fill="white"/>
</clipPath>
</defs>
</svg>
