<svg width="16" height="14" viewBox="0 0 16 14" fill="none" xmlns="http://www.w3.org/2000/svg">
<path d="M12.232 3.82065C11.358 1.71998 9.302 0.333984 7 0.333984C3.87533 0.333984 1.33333 2.87598 1.33333 6.00065C1.33333 6.36798 1.36867 6.73198 1.438 7.08932C0.54 7.77732 0 8.85332 0 10.0007C0 12.022 1.49533 13.6673 3.33333 13.6673H11C13.7573 13.6673 16 11.4247 16 8.66732C16 6.35598 14.4373 4.37598 12.232 3.82065ZM8.94267 10.61C8.68267 10.87 8.34133 11 8 11C7.65867 11 7.31733 10.87 7.05733 10.61L4.862 8.41465L5.80467 7.47198L7.33333 9.00065V5.00065H8.66667V9.00065L10.1953 7.47198L11.138 8.41465L8.94267 10.61Z" fill="#2061F8"/>
</svg>
