<svg width="12" height="12" viewBox="0 0 12 12" fill="none" xmlns="http://www.w3.org/2000/svg">
<path d="M9.25 1H9V0.75C9 0.3355 8.664 0 8.25 0C7.836 0 7.5 0.3355 7.5 0.75V1H4.5V0.75C4.5 0.3355 4.164 0 3.75 0C3.336 0 3 0.3355 3 0.75V1H2.75C1.234 1 0 2.2335 0 3.75V9.25C0 10.7665 1.234 12 2.75 12H9.25C10.766 12 12 10.7665 12 9.25V3.75C12 2.2335 10.766 1 9.25 1ZM9.25 10.5H2.75C2.0605 10.5 1.5 9.939 1.5 9.25V4.5H10.5V9.25C10.5 9.939 9.9395 10.5 9.25 10.5ZM5 6.25V7.25C5 7.664 4.664 8 4.25 8H3.25C2.836 8 2.5 7.664 2.5 7.25V6.25C2.5 5.836 2.836 5.5 3.25 5.5H4.25C4.664 5.5 5 5.836 5 6.25Z" fill="#060F27"/>
</svg>
