<svg width="18" height="18" viewBox="0 0 18 18" fill="none" xmlns="http://www.w3.org/2000/svg">
<g clip-path="url(#clip0_1765_928)">
<path d="M16.5 10.9028V9.75C16.5 8.0955 15.1545 6.75 13.5 6.75C11.8455 6.75 10.5 8.0955 10.5 9.75V10.9028C9.60375 11.4225 9 12.3923 9 13.5V15C9 16.6545 10.3455 18 12 18H15C16.6545 18 18 16.6545 18 15V13.5C18 12.3923 17.3962 11.4225 16.5 10.9028ZM12 9.75C12 8.92275 12.6727 8.25 13.5 8.25C14.3273 8.25 15 8.92275 15 9.75V10.5H12V9.75ZM16.5 15C16.5 15.8273 15.8273 16.5 15 16.5H12C11.1727 16.5 10.5 15.8273 10.5 15V13.5C10.5 12.6727 11.1727 12 12 12H15C15.8273 12 16.5 12.6727 16.5 13.5V15ZM14.625 14.25C14.625 14.871 14.121 15.375 13.5 15.375C12.879 15.375 12.375 14.871 12.375 14.25C12.375 13.629 12.879 13.125 13.5 13.125C14.121 13.125 14.625 13.629 14.625 14.25ZM6 9C8.48175 9 10.5 6.98175 10.5 4.5C10.5 2.01825 8.48175 0 6 0C3.51825 0 1.5 2.01825 1.5 4.5C1.5 6.98175 3.51825 9 6 9ZM6 1.5C7.6545 1.5 9 2.8455 9 4.5C9 6.1545 7.6545 7.5 6 7.5C4.3455 7.5 3 6.1545 3 4.5C3 2.8455 4.3455 1.5 6 1.5ZM7.4925 11.4083C7.434 11.8185 7.05525 12.105 6.64425 12.0458C6.43125 12.015 6.21375 12 6 12C3.51825 12 1.5 14.0182 1.5 16.5V17.25C1.5 17.664 1.164 18 0.75 18C0.336 18 0 17.664 0 17.25V16.5C0 13.1918 2.69175 10.5 6 10.5C6.28425 10.5 6.57225 10.5203 6.85575 10.5608C7.266 10.6193 7.551 10.9987 7.49325 11.409L7.4925 11.4083Z" fill="#1A1A1A"/>
</g>
<defs>
<clipPath id="clip0_1765_928">
<rect width="18" height="18" fill="white"/>
</clipPath>
</defs>
</svg>
