<svg width="42" height="42" viewBox="0 0 42 42" fill="none" xmlns="http://www.w3.org/2000/svg">
<g clip-path="url(#clip0_935_102)">
<path d="M26.2443 6.73165C26.2555 7.44244 26.6877 8.07879 27.3444 8.35122C33.2201 10.9366 36.9372 16.831 36.7381 23.2472C36.5971 31.9406 29.4354 38.8736 20.742 38.7326C12.0486 38.5916 5.1155 31.4299 5.25659 22.7365C5.26487 16.5053 8.94812 10.8655 14.6503 8.35294C15.3072 8.07887 15.7392 7.44154 15.7504 6.72993C15.752 5.764 14.9701 4.97975 14.0042 4.97819C13.7791 4.97787 13.5561 5.02091 13.3473 5.1051C3.59881 9.33149 -0.877708 20.6604 3.34876 30.4089C7.57524 40.1575 18.9041 44.6339 28.6526 40.4075C38.4011 36.1811 42.8776 24.8522 38.6512 15.1037C36.7083 10.6225 33.1338 7.04794 28.6526 5.1051C27.7579 4.74093 26.7375 5.17102 26.3733 6.06562C26.2872 6.27713 26.2434 6.50332 26.2443 6.73165Z" fill="#EC2F1A"/>
<path d="M20.9975 0C21.9634 0 22.7464 0.78302 22.7464 1.74894V12.2428C22.7464 13.2087 21.9634 13.9917 20.9975 13.9917C20.0316 13.9917 19.2485 13.2087 19.2485 12.2428V1.74894C19.2485 0.78302 20.0316 0 20.9975 0Z" fill="#EC2F1A"/>
</g>
<defs>
<clipPath id="clip0_935_102">
<rect width="42" height="42" fill="white"/>
</clipPath>
</defs>
</svg>
