<svg width="15" height="14" viewBox="0 0 15 14" fill="none" xmlns="http://www.w3.org/2000/svg">
<g clip-path="url(#clip0_1911_2281)">
<path d="M11.5833 0H3.41667C2.6434 0.00092625 1.90208 0.308514 1.35529 0.855295C0.808514 1.40208 0.500926 2.1434 0.5 2.91667L0.5 11.0833C0.500926 11.8566 0.808514 12.5979 1.35529 13.1447C1.90208 13.6915 2.6434 13.9991 3.41667 14H11.5833C12.3566 13.9991 13.0979 13.6915 13.6447 13.1447C14.1915 12.5979 14.4991 11.8566 14.5 11.0833V2.91667C14.4991 2.1434 14.1915 1.40208 13.6447 0.855295C13.0979 0.308514 12.3566 0.00092625 11.5833 0ZM3.41667 1.16667H11.5833C12.0475 1.16667 12.4926 1.35104 12.8208 1.67923C13.149 2.00742 13.3333 2.45254 13.3333 2.91667V11.0833C13.3323 11.3432 13.2725 11.5995 13.1583 11.8329L7.81325 6.48783C7.5424 6.21691 7.22084 6.00201 6.86692 5.85538C6.513 5.70876 6.13367 5.63329 5.75058 5.63329C5.3675 5.63329 4.98816 5.70876 4.63425 5.85538C4.28033 6.00201 3.95876 6.21691 3.68792 6.48783L1.66667 8.5085V2.91667C1.66667 2.45254 1.85104 2.00742 2.17923 1.67923C2.50742 1.35104 2.95254 1.16667 3.41667 1.16667ZM3.41667 12.8333C2.95254 12.8333 2.50742 12.649 2.17923 12.3208C1.85104 11.9926 1.66667 11.5475 1.66667 11.0833V10.1582L4.51217 7.31267C4.67468 7.15005 4.86765 7.02104 5.08004 6.93302C5.29244 6.84501 5.52009 6.79971 5.75 6.79971C5.97991 6.79971 6.20756 6.84501 6.41996 6.93302C6.63235 7.02104 6.82532 7.15005 6.98783 7.31267L12.3329 12.6583C12.0995 12.7725 11.8432 12.8323 11.5833 12.8333H3.41667Z" fill="#2061F8"/>
<path d="M9.83317 6.12435C10.237 6.12435 10.6317 6.00461 10.9675 5.78027C11.3032 5.55593 11.5649 5.23706 11.7194 4.864C11.874 4.49093 11.9144 4.08042 11.8356 3.68437C11.7568 3.28833 11.5624 2.92454 11.2768 2.63901C10.9913 2.35347 10.6275 2.15902 10.2315 2.08025C9.83544 2.00147 9.42492 2.0419 9.05186 2.19643C8.67879 2.35096 8.35993 2.61264 8.13559 2.94839C7.91125 3.28414 7.7915 3.67888 7.7915 4.08268C7.7915 4.62417 8.00661 5.14347 8.38949 5.52636C8.77238 5.90925 9.29169 6.12435 9.83317 6.12435ZM9.83317 3.20768C10.0062 3.20768 10.1754 3.259 10.3193 3.35515C10.4632 3.45129 10.5753 3.58795 10.6416 3.74784C10.7078 3.90772 10.7251 4.08365 10.6914 4.25339C10.6576 4.42312 10.5743 4.57903 10.4519 4.7014C10.3295 4.82377 10.1736 4.90711 10.0039 4.94087C9.83414 4.97463 9.65821 4.9573 9.49832 4.89108C9.33844 4.82485 9.20178 4.7127 9.10563 4.56881C9.00949 4.42491 8.95817 4.25574 8.95817 4.08268C8.95817 3.85062 9.05036 3.62806 9.21445 3.46396C9.37855 3.29987 9.60111 3.20768 9.83317 3.20768Z" fill="#2061F8"/>
</g>
<defs>
<clipPath id="clip0_1911_2281">
<rect width="14" height="14" fill="white" transform="translate(0.5)"/>
</clipPath>
</defs>
</svg>
