<svg width="22" height="20" viewBox="0 0 22 20" fill="none" xmlns="http://www.w3.org/2000/svg">
<path d="M20.5245 8.12037L17.3886 2.7037C16.7203 1.54953 15.477 0.832031 14.1428 0.832031H7.85529C6.52195 0.832031 5.27862 1.5487 4.60945 2.7037L1.47445 8.12037C0.802786 9.27953 0.802786 10.7187 1.47445 11.8779L4.61029 17.2945C5.27945 18.4487 6.52279 19.1662 7.85612 19.1662H14.1436C15.4778 19.1662 16.7211 18.4495 17.3895 17.2945L20.5253 11.8779C21.197 10.7187 21.1961 9.27953 20.5245 8.12037ZM19.8036 11.4604L16.6678 16.877C16.1486 17.7745 15.1811 18.3329 14.1436 18.3329H7.85612C6.81945 18.3329 5.85195 17.7754 5.33195 16.877L2.19612 11.4604C1.67445 10.5587 1.67445 9.43953 2.19612 8.53786L5.33195 3.1212C5.85195 2.2237 6.81945 1.66536 7.85612 1.66536H14.1436C15.1811 1.66536 16.1486 2.22286 16.6678 3.1212L19.8036 8.53786C20.3253 9.43953 20.3253 10.5587 19.8036 11.4604ZM14.182 7.37703L11.5603 9.9987L14.182 12.6204C14.3445 12.7829 14.3445 13.047 14.182 13.2095C14.1003 13.2912 13.9936 13.3312 13.887 13.3312C13.7803 13.3312 13.6736 13.2904 13.592 13.2095L10.9703 10.5879L8.34862 13.2095C8.26695 13.2912 8.16029 13.3312 8.05362 13.3312C7.94695 13.3312 7.84029 13.2904 7.75862 13.2095C7.59612 13.047 7.59612 12.7829 7.75862 12.6204L10.3803 9.9987L7.75862 7.37703C7.59612 7.21453 7.59612 6.95037 7.75862 6.78787C7.92112 6.62537 8.18529 6.62537 8.34779 6.78787L10.9695 9.40953L13.5911 6.78787C13.7536 6.62537 14.0178 6.62537 14.1803 6.78787C14.3428 6.95037 14.3428 7.21453 14.1803 7.37703H14.182Z" fill="#2061F8"/>
</svg>
