<svg width="18" height="18" viewBox="0 0 18 18" fill="none" xmlns="http://www.w3.org/2000/svg">
<g clip-path="url(#clip0_1373_6997)">
<path d="M8.99692 0C9.61788 0 10.1213 0.503397 10.1213 1.12436V4.87223C10.1213 5.4932 9.61788 5.99659 8.99692 5.99659C8.37596 5.99659 7.87256 5.4932 7.87256 4.87223V1.12436C7.87256 0.503397 8.37592 0 8.99692 0Z" fill="#545454"/>
<path d="M11.6204 3.70377C11.6148 4.0812 11.8051 4.4346 12.1233 4.63772C14.9494 6.36442 15.8406 10.0552 14.1139 12.8812C12.3871 15.7073 8.69642 16.5985 5.87035 14.8718C3.04427 13.1451 2.15308 9.45433 3.87981 6.62826C4.37319 5.82076 5.05069 5.14147 5.85689 4.64594C6.18053 4.44282 6.37596 4.08658 6.37336 3.70447C6.37508 3.08351 5.87309 2.57874 5.25212 2.57702C5.03885 2.57642 4.82979 2.6365 4.64936 2.75028C0.781042 5.15303 -0.407019 10.2367 1.9957 14.105C4.39842 17.9732 9.48207 19.1613 13.3504 16.7586C17.2186 14.3559 18.4067 9.27222 16.004 5.40394C15.3352 4.32719 14.4271 3.41913 13.3504 2.75031C12.8234 2.41789 12.1268 2.57558 11.7943 3.10252C11.6808 3.28248 11.6205 3.49095 11.6204 3.70377Z" fill="#545454"/>
</g>
<defs>
<clipPath id="clip0_1373_6997">
<rect width="18" height="18" fill="white"/>
</clipPath>
</defs>
</svg>
