<svg width="18" height="20" viewBox="0 0 18 20" fill="none" xmlns="http://www.w3.org/2000/svg">
<path d="M16.6681 5.25815C16.6206 5.12565 16.5106 5.02565 16.3731 4.99232C16.2673 4.96648 14.3323 4.50315 11.689 4.28148V3.50982C11.689 2.03398 10.4865 0.833984 8.99147 0.833984C7.51314 0.833984 6.3098 2.03398 6.3098 3.50982V4.28148C3.67064 4.50315 1.7323 4.96648 1.62647 4.99148C1.48897 5.02482 1.37814 5.12565 1.33147 5.25815C1.29147 5.37148 0.362305 8.06315 0.362305 11.6648C0.362305 15.2973 1.2923 17.9623 1.3323 18.0732C1.37897 18.2057 1.4898 18.3057 1.62647 18.339C1.76564 18.3732 5.0773 19.1656 9.00064 19.1656C12.924 19.1656 16.2348 18.3723 16.374 18.339C16.5115 18.3057 16.6231 18.2048 16.669 18.0723C16.709 17.959 17.6381 15.2673 17.6381 11.6648C17.6381 8.03232 16.7081 5.36815 16.669 5.25648L16.6681 5.25815ZM7.14314 3.51065C7.14314 2.49482 7.9723 1.66815 9.00814 1.66815C10.0273 1.66815 10.8565 2.49482 10.8565 3.51065V4.22232C10.2615 4.18732 9.63897 4.16565 8.9998 4.16565C8.36064 4.16565 7.73897 4.18648 7.14314 4.22232V3.51065ZM2.04814 5.75065C2.86147 5.57398 5.75814 4.99815 8.9998 4.99815C12.2415 4.99815 15.1415 5.57398 15.9523 5.75065C16.1131 6.27065 16.5098 7.69232 16.6998 9.59232C15.7881 9.78565 12.5848 10.4057 9.00064 10.4057C5.41647 10.4057 2.2148 9.78648 1.3023 9.59315C1.49314 7.70232 1.88814 6.27398 2.04814 5.75065ZM15.9515 17.5815C15.1381 17.7582 12.2423 18.334 8.9998 18.334C5.7573 18.334 2.8573 17.7582 2.0473 17.5815C1.8323 16.8873 1.19564 14.5832 1.19564 11.6657C1.19564 11.2407 1.2098 10.8273 1.23397 10.4298C2.26064 10.6432 5.21897 11.1932 8.58314 11.2357V12.4348C8.58314 12.6648 8.7698 12.8515 8.9998 12.8515C9.2298 12.8515 9.41647 12.6648 9.41647 12.4348V11.2357C12.7756 11.1923 15.739 10.6423 16.7665 10.4298C16.7906 10.8273 16.804 11.2398 16.804 11.6657C16.804 14.5532 16.1656 16.8807 15.9515 17.5815Z" fill="#2061F8"/>
</svg>
