<svg width="512" height="306" viewBox="0 0 512 306" fill="none" xmlns="http://www.w3.org/2000/svg">
<path d="M293.288 114.543C273.483 78.5794 285.225 32.5866 319.515 11.8149C353.805 -8.95677 397.658 3.35842 417.463 39.3217L502.04 192.9C521.845 228.863 510.103 274.856 475.813 295.627C441.523 316.399 397.67 304.084 377.865 268.121L293.288 114.543Z" fill="#D0E4FF"/>
<path fill-rule="evenodd" clip-rule="evenodd" d="M66.6176 90.5424L9.75873 194.3C-17.0342 243.192 16.4942 304.279 70.1226 304.279H178.525L66.6176 90.5424ZM226.292 304.279H242.547C296.176 304.279 329.704 243.192 302.911 194.3L216.699 36.9772C189.885 -11.9539 122.785 -11.954 95.9712 36.9771L91.0456 45.9655L226.292 304.279Z" fill="#2061F8"/>
</svg>
